# xmcd
#
# Track frame offsets:
#	187
#	24735
#	44942
#	68695
#	87730
#	115440
#	137722
#	159782
#	183250
#	203945
#
# Disc length: 2988 seconds
#
# Revision: 1
# Processed by: cddbd v1.4PL0 Copyright (c) Steve Scherf et al.
# Submitted via: EasyCDDAExtractor 5.0.7
#
DISCID=910baa0a
DTITLE=Various Artist - Touch Me In The Morning
DYEAR=1900
DGENRE=
TTITLE0=Thuy Du - Let me get to know you
TTITLE1=Thai Thao - Midnight blue
TTITLE2=Minh Xuan - Touch me in the morning
TTITLE3=Tuan Dung - How can I tell her
TTITLE4=Ngoc Tuyet - When I need you
TTITLE5=Thai Hien - We're all alone
TTITLE6=Trung Hanh - I go crazy
TTITLE7=Minh Xuan - You needed me
TTITLE8=Cong Thanh - If you go away
TTITLE9=Tuyet Nhung - Do that to me one more time
EXTD=
EXTT0=
EXTT1=
EXTT2=
EXTT3=
EXTT4=
EXTT5=
EXTT6=
EXTT7=
EXTT8=
EXTT9=
PLAYORDER=
